8888888888                888      8888888888                       
888                       888      888                              
888                       888      888                              
8888888  .d88b.   .d88b.  888      8888888 888d888 .d88b.   .d88b.  
888     d8P  Y8b d8P  Y8b 888      888     888P"  d8P  Y8b d8P  Y8b 
888     88888888 88888888 888      888     888    88888888 88888888 
888     Y8b.     Y8b.     888      888     888    Y8b.     Y8b.     
888      "Y8888   "Y8888  888      888     888     "Y8888   "Y8888  


Genre:Comedy | Drama
Language:English
IMDb: 
http://www.imdb.com/title/tt0763831
Source:720p.BluRay.x264.DTS-HDChina Thanks!
Encoder:Tony

Format : MPEG-4
Format profile : Base Media
Codec ID : isom
File size : 2.20 GiB
Duration : 1h 31mn
Overall bit rate mode : Variable
Overall bit rate : 3 439 Kbps

Video
ID : 1
Format : AVC
Format/Info : Advanced Video Codec
Format profile : High@L4.1
Format settings, CABAC : Yes
Format settings, ReFrames : 3 frames
Codec ID : avc1
Codec ID/Info : Advanced Video Coding
Duration : 1h 31mn
Bit rate : 3 000 Kbps
Maximum bit rate : 13.8 Mbps
Width : 1 280 pixels
Height : 528 pixels
Display aspect ratio : 2.40:1
Frame rate mode : Constant
Frame rate : 23.976 fps
Color space : YUV
Chroma subsampling : 4:2:0
Bit depth : 8 bits
Scan type : Progressive
Bits/(Pixel*Frame) : 0.185
Stream size : 1.91 GiB (87%)
Writing library : x264

Audio
ID : 2
Format : AAC
Format/Info : Advanced Audio Codec
Format profile : LC
Codec ID : 40
Duration : 1h 31mn
Bit rate mode : Variable
Bit rate : 441 Kbps
Maximum bit rate : 536 Kbps
Channel(s) : 6 channels
Channel positions : Front: L C R, Side: L R, LFE
Sampling rate : 48.0 KHz
Compression mode : Lossy
Stream size : 289 MiB (13%)

Plot:
After stretching the truth on a deal with a spiritual guru, literary agent Jack McCall finds a Bodhi tree on his property. Its appearance holds a valuable lesson on the consequences of every word we speak.

Screen Shots:
                      
http://img39.imageshack.us/img39/4233/vlcsnap2012061519h18m47.png
 
http://img40.imageshack.us/img40/9616/vlcsnap2012061519h19m14.png
 
http://img32.imageshack.us/img32/1678/vlcsnap2012061519h19m06.png
 
http://img94.imageshack.us/img94/184/vlcsnap2012061519h18m34.png
 
http://img42.imageshack.us/img42/1050/vlcsnap2012061519h18m41.png


8888888888                888      8888888888                       
888                       888      888                              
888                       888      888                              
8888888  .d88b.   .d88b.  888      8888888 888d888 .d88b.   .d88b.  
888     d8P  Y8b d8P  Y8b 888      888     888P"  d8P  Y8b d8P  Y8b 
888     88888888 88888888 888      888     888    88888888 88888888 
888     Y8b.     Y8b.     888      888     888    Y8b.     Y8b.     
888      "Y8888   "Y8888  888      888     888     "Y8888   "Y8888  